# xmcd
#
# Track frame offsets: 
#        150
#        27147
#        40985
#        61100
#        82580
#        105642
#        125220
#        146777
#        169330
#        185122
#        207752
#        231257
#        247047
#        275555
#        313012
#
# Disc length: 4593 seconds
#
# Revision: 2
# Processed by: cddbd v1.5.1PL0 Copyright (c) Steve Scherf et al.
# Submitted via: ExactAudioCopy v0.95a5
#
DISCID=da11ef0f
DTITLE=Various Artist - Iced Up - The Stoned Cold Chillout Session
DYEAR=1996
DGENRE=Trip-Hop
TTITLE0=Cherry Orchard - No More Nightmares (12" Mix)
TTITLE1=Enigma - Age Of Loneliness (Jam and Spoon Trip Hop Remix)
TTITLE2=Moloko - Fun For Me (Extended Play)
TTITLE3=A Tribe Called Quest - Bonita Appelbaum (12" Boys Mix)
TTITLE4=Kapta feat. Sarah Williams - Glowing Sun (Wave Inc Rising Mix)
TTITLE5=Moby - First Cool Hive
TTITLE6=St. Etienne - Only Love Can Break Your Heart (Weatherall Mix)
TTITLE7=Innocence - Natural Thing (Elevation Mix)
TTITLE8=Reefa - Peace To The I
TTITLE9=Massive Attack - Karmacoma (Mo' Wax Mix)
TTITLE10=Audio Deluxe - 60 Seconds (Instrumental Verison)
TTITLE11=Leftfield - Release The Pressure (Release One)
TTITLE12=Bomb the Bass - Beat Dis (Extended Dis)
TTITLE13=Underworld - Dirty Epic
TTITLE14=Superstars of Rock - Orange Sunshine (Vth Column Lounged Out 
TTITLE14=Sunset Mix)
EXTD=
EXTT0=Cherry Orchard
EXTT1=Enigma
EXTT2=Moloko
EXTT3=A Tribe Called Quest
EXTT4=Kapta featuring Sarah Williams
EXTT5=Moby
EXTT6=St. Etienne
EXTT7=Innocence
EXTT8=Reefa
EXTT9=Massive Attack
EXTT10=Audio Deluxe
EXTT11=Leftfield
EXTT12=Bomb The Bass
EXTT13=Underworld
EXTT14=Superstars Of Rock
PLAYORDER=
